<svg xmlns="http://www.w3.org/2000/svg" viewBox="0 0 319.23 294.61"><defs><style>.cls-1{fill:#d62018;}.cls-2{fill:#f0bd8d;}.cls-3{fill:#824121;}.cls-4{fill:#ededed;}.cls-5{fill:#424ed4;}.cls-6{fill:#fefefe;}</style></defs><g id="Capa_2" data-name="Capa 2"><g id="Capa_1-2" data-name="Capa 1"><path class="cls-1" d="M82.85,18.21c1.69-4.87.31-9.89.68-14.82.14-1.9.09-3.4,2.71-3.39q52.19.24,104.35.36c0,4.92.06,9.85-.08,14.77-.07,2.39.55,3.46,3.2,3.37,6.3-.23,12.62-.18,18.92-.24,6.67.9,13.26-.29,19.88-.73,5.33,2.4,10.92.79,16.38.94,3.82.11,5.84.63,5.27,5.16-.47,3.8,0,7.7-.12,11.55-.07,2.38.59,3.41,3.25,3.37,12.58-.19,25.15-.18,37.73-.25l1.27,1.25V48c0,3.51,0,7,0,10.54a27.79,27.79,0,0,0-.77,4.66c0,11.58.12,23.17.12,34.76,0,1.64.85,3.55-1,4.85a.46.46,0,0,0-.73.06,73.51,73.51,0,0,0-17.91,0c0-4.56-.09-9.12-.1-13.67,0-7.53,0-7.48-7.48-7.53-4.69,0-10.79,1.5-13.67-.85-3.07-2.5-1.2-8.9-.87-13.51.36-4.95-1.48-5.87-5.88-5.55a38.22,38.22,0,0,1-15.54-2.16c-.43-6.65,1.27-13.38-.84-20l-20,0-21-.11a174,174,0,0,0-22.26,0l-41.48.1q-28.68,0-57.37-.09c-2.2,0-4.63.66-6.4-1.44.85-6.52-.86-13.13.64-19.64l5.4-.08Z"/><path class="cls-2" d="M232.51,17.53C235.21,12,233,6.12,233.84.46L296,.42v0q0,7.92.11,15.84l0,15.85L295,38.3c-12.58.07-25.15.06-37.73.25-2.66,0-3.32-1-3.25-3.37.11-3.85-.35-7.75.12-11.55.57-4.53-1.45-5.05-5.27-5.16C243.43,18.32,237.84,19.93,232.51,17.53Z"/><path class="cls-3" d="M295.76,160.05a4.63,4.63,0,0,0,.07-.52c.16-4.34-1.35-10.32.9-12.62,2.89-3,8.88-.81,13.52-.95,2.94-.09,5.95-.54,8.84.5q.07,51.24.14,102.47a3,3,0,0,1-2.1,2.11c-2.09-.09-4.17-.23-6.26-.26q-18-.19-36-.35l-.24-62,.06-14.62.21-6.37,3.17-.3h1l13.69-.06c1.6.33,3.27.79,3.14-1.85C295.86,163.54,295.82,161.79,295.76,160.05Z"/><path class="cls-3" d="M21.69,293.7H5.81c-4.78.71-5.94-1.41-5.8-6C.38,275.79.16,263.91.18,252l4.63-.19c15.27.89,15.27.89,14.53-14.53.1-2.33.19-4.66.29-7l43.66-.12a407.22,407.22,0,0,1-.06,42.65l-1.46.39c-5.42-.06-10.84-.06-16.25-.23-2.25-.07-3.09.65-3,3,.21,5.07.18,10.15.24,15.23-.33.85.18,2.1-1.18,2.46l-1.21.05a.41.41,0,0,0-.54,0H38.28l-.47-.05Z"/><path class="cls-2" d="M84.93,146.24a2.69,2.69,0,0,0-.07-1l-.12-19c-.17-.69-.34-1.38-.52-2.07,0-5.64-.07-11.28.22-16.9.2-3.83-1.4-4.88-4.94-4.66-4,.24-8.1-.18-12.12.12-3.61.28-4.4-1.16-4.34-4.52.2-10.39-.12-20.78.17-31.17.12-4.2-.7-6-5.34-5.57-4,.41-8-.13-12.07-.24,5.51-1.27,11.09-.32,16.64-.54,6,0,12,.19,17.92-.15,3.66-.21,4.42,1.19,4.37,4.51-.16,11.28,0,22.56-.12,33.83,0,3.08.62,4.37,4,4.3q17.4-.37,34.8-.17c3,0,3.51-1.22,3.44-3.76-.13-4.75-.18-9.52,0-14.27.12-3.08-.57-4.45-4.07-4.18-4.53.35-9.11-.1-13.66.07-2.36.09-3.13-.75-3.1-3,.08-4.76.11-9.52,0-14.27-.06-2.31.8-3.09,3.07-3,4.39.13,8.81-.22,13.18.11,3.85.29,4.78-1.22,4.61-4.81-.27-5.45,0-10.92,0-16.38l41.48-.1c0,13,.12,26.05,0,39.08,0,3,.86,4,3.85,3.9,4.73-.19,9.48,0,14.22-.08,2.23,0,3.09.7,3,3-.16,4.57-.26,9.17,0,13.72.21,3.21-1.1,3.66-3.89,3.73-5.35.12-12.69-2.47-15.5,1.08-2.68,3.38-.49,10.45-.94,15.86-.37,4.47,1.18,5.54,5.54,5.49,19.67-.21,39.34,0,59,0,0,5.81-.12,11.63.09,17.43.11,3.06-1,3.9-3.93,3.81-5.78-.16-11.58.09-17.37.18a157.59,157.59,0,0,0-21.73,0l-64.41-.13-21.07.13Z"/><path class="cls-3" d="M233.65,125.24c-19.67,0-39.34-.22-59,0-4.36,0-5.91-1-5.54-5.49.45-5.41-1.74-12.48.94-15.86,2.81-3.55,10.15-1,15.5-1.08,2.79-.07,4.1-.52,3.89-3.73-.29-4.55-.19-9.15,0-13.72.08-2.34-.78-3.08-3-3-4.74.11-9.49-.11-14.22.08-3,.13-3.88-.88-3.85-3.9.16-13,.05-26.06,0-39.08a172.23,172.23,0,0,1,22.26,0c0,12.66.13,25.32-.14,38-.08,3.88,1.28,4.84,4.8,4.52,2.95-.28,6,.22,8.93-.12,5-.58,7.6.65,6.68,6.41-.52,3.26.18,6.7-.17,10-.4,3.87,1.15,4.62,4.71,4.58,12.8-.14,25.6.07,38.4.15,0,5.59-.25,11.18,0,16.75.17,3.78-1.29,4.62-4.83,4.68C243.89,124.48,238.66,123.16,233.65,125.24Z"/><path class="cls-2" d="M253.83,103c-12.8-.08-25.6-.29-38.4-.15-3.56,0-5.11-.71-4.71-4.58.35-3.3-.35-6.74.17-10,.92-5.76-1.67-7-6.68-6.41-2.94.34-6-.16-8.93.12-3.52.32-4.88-.64-4.8-4.52.27-12.66.12-25.32.14-38l21,.1c0,2.8.09,5.6.13,8.4-.55,12.86-.55,12.87,12,12.81,1.22,0,2.43-.07,3.65-.1,1.49,0,3.16.72,4.27-1q.39-.09.78-.15A38.22,38.22,0,0,0,248,61.69c4.4-.32,6.24.6,5.88,5.55-.33,4.61-2.2,11,.87,13.51,2.88,2.35,9,.81,13.67.85,7.47.05,7.46,0,7.48,7.53,0,4.55.07,9.11.1,13.67,0,.38-.05.77-.08,1.15a5,5,0,0,1-.77.15c-.58-1.45-1.85-1.39-3.07-1.38Z"/><path class="cls-3" d="M126.88,39.51c0,5.46-.24,10.93,0,16.38.17,3.59-.76,5.1-4.61,4.81-4.37-.33-8.79,0-13.18-.11-2.27-.07-3.13.71-3.07,3,.12,4.75.09,9.51,0,14.27,0,2.24.74,3.08,3.1,3,4.55-.17,9.13.28,13.66-.07,3.5-.27,4.19,1.1,4.07,4.18-.2,4.75-.15,9.52,0,14.27.07,2.54-.43,3.79-3.44,3.76q-17.4-.2-34.8.17c-3.4.07-4.06-1.22-4-4.3.16-11.27,0-22.55.12-33.83,0-3.32-.71-4.72-4.37-4.51-6,.34-11.94.13-17.92.15.29-7.57-.91-15.18.67-22.71,1.77,2.1,4.2,1.44,6.4,1.44Q98.19,39.51,126.88,39.51Z"/><path class="cls-4" d="M296.29,48a15.17,15.17,0,0,1,0,10.54C296.28,55,296.29,51.49,296.29,48Z"/><path class="cls-5" d="M190.71,146.65a157.59,157.59,0,0,1,21.73,0c0,5.43.13,10.88-.06,16.31-.09,2.78.87,3.63,3.6,3.57,5.59-.13,11.19.07,16.79.14q.07,9.9.16,19.81l-.15,2.14c-6.14,0-12.28.16-18.41,0-2.71-.07-3.76.67-3.65,3.51.2,4.74.14,9.49,0,14.24-.05,2.33.44,3.54,3.16,3.44,5.26-.2,10.53-.16,15.79,0,2.49.07,3.44-.76,3.35-3.3-.22-6-.24-11.94-.33-17.91,14-.6,28-.53,41.93-.1l.24,62c-9.08.13-18.17.33-27.25.36-17.68.06-35.36.08-53,0-3.13,0-4.35.72-4.18,4.07.3,5.77.15,11.57.18,17.36-1.55,1.56-3.67.29-5.38,1.07l-120.33,0-1.66-.35a410,410,0,0,0,.07-42.65c1.41-3.38-.91-6.48-.71-9.77v-7.55l.2-3c1.93-.09,3.85-.25,5.77-.25,18.07,0,36.13-.08,54.2.05,2.95,0,4.38-.26,4.3-3.83-.23-11.6-.19-23.21,0-34.81,0-3.14-1.13-3.89-4-3.79-4.91.18-9.83-.11-14.73.12-2.64.12-3.35-.86-3.29-3.3.16-5.79.14-11.59.19-17.39l21.07-.13c0,5.28.19,10.56,0,15.82-.13,3.13.63,4.43,4,4.21,4.72-.29,9.47.08,14.2-.13,2.91-.13,4.07.7,3.91,3.79-.23,4.74,0,9.49-.09,14.24,0,2.07.31,3.2,2.81,3.19q28.68-.12,57.34,0c2.25,0,3.06-.72,3-3.07q-.27-7.91,0-15.82c.08-2.52-.67-3.35-3.25-3.22-4.55.22-9.12-.06-13.68.11-2.76.1-4.22-.43-4-3.69C190.78,156.85,190.65,151.74,190.71,146.65Zm-22.07,73c0-11,0-11-10.71-11-10.47,0-10.5,0-10.45,10.4,0,3.84.22,7.69.34,11.53,3.49-.12,7-.32,10.48-.33C168.64,230.16,168.64,230.19,168.64,219.62Z"/><path class="cls-4" d="M278.08,167.19c.35-.47.69-.48,1,0Z"/><path class="cls-6" d="M41.58,293.7l-.35.82-.86-.77Z"/><path class="cls-6" d="M39.83,293.74c-.51,1.17-1,1.14-1.55,0Z"/><path class="cls-1" d="M105.23,146.65c0,5.8,0,11.6-.19,17.39-.06,2.44.65,3.42,3.29,3.3,4.9-.23,9.82.06,14.73-.12,2.85-.1,4,.65,4,3.79-.17,11.6-.21,23.21,0,34.81.08,3.57-1.35,3.85-4.3,3.83-18.07-.13-36.13-.07-54.2-.05-1.92,0-3.84.16-5.77.25-6-.06-11.93-.23-17.9-.12-2.54.05-3.36-.8-3.26-3.32.17-4.57-.26-9.18.13-13.72.33-3.9-1.25-4.79-4.7-4.61-4.18.22-8.4-.19-12.56.19-2.8.26-3.16-.77-3.14-3.13.09-11.61.2-23.21,0-34.82-.07-3.36.91-4,4.08-4,19.14.17,38.28.09,57.42.07.7,0,1.4-.12,2.1-.19Z"/><path class="cls-1" d="M190.71,146.65c-.06,5.09.07,10.2-.23,15.28-.19,3.26,1.27,3.79,4,3.69,4.56-.17,9.13.11,13.68-.11,2.58-.13,3.33.7,3.25,3.22q-.24,7.91,0,15.82c.07,2.35-.74,3.07-3,3.07q-28.66-.08-57.34,0c-2.5,0-2.85-1.12-2.81-3.19.1-4.75-.14-9.5.09-14.24.16-3.09-1-3.92-3.91-3.79-4.73.21-9.48-.16-14.2.13-3.4.22-4.16-1.08-4-4.21.22-5.26,0-10.54,0-15.82Z"/><path class="cls-1" d="M232.77,166.68c-5.6-.07-11.2-.27-16.79-.14-2.73.06-3.69-.79-3.6-3.57.19-5.43.06-10.88.06-16.31,5.79-.09,11.59-.34,17.37-.18,3,.09,4-.75,3.93-3.81-.21-5.8-.08-11.62-.09-17.43,5-2.08,10.24-.76,15.36-.86,3.54-.06,5-.9,4.83-4.68-.26-5.57,0-11.16,0-16.75l18.25-.23c1.22,0,2.49-.07,3.07,1.38q.11,20,.22,40.07c0,.36,0,.71,0,1.07l-.57,1-17.83.14h-1.1c-3.26-.46-2.12,2.07-2.15,3.47-.11,5.43,0,10.86,0,16.29Z"/><path class="cls-3" d="M43.92,61.22H45.8c4,.11,8.09.65,12.07.24,4.64-.46,5.46,1.37,5.34,5.57-.29,10.39,0,20.78-.17,31.17-.06,3.36.73,4.8,4.34,4.52,4-.3,8.09.12,12.12-.12,3.54-.22,5.14.83,4.94,4.66-.29,5.62-.17,11.26-.22,16.9-12.6,0-25.21,0-37.81,0-2.26,0-3.88.22-3.84-3.1.22-19.82.19-39.65.25-59.48Z"/><path class="cls-4" d="M275.37,144.17q-.12-20-.22-40.07a5,5,0,0,0,.77-.15c0,12.23.07,24.46.05,36.68A23,23,0,0,1,275.37,144.17Z"/><path class="cls-2" d="M43.92,61.22l-1.1.4C43,60.82,43.3,60.64,43.92,61.22Z"/><path class="cls-2" d="M232.71,188.58c.09,6,.11,11.94.33,17.91.09,2.54-.86,3.37-3.35,3.3-5.26-.14-10.53-.18-15.79,0-2.72.1-3.21-1.11-3.16-3.44.12-4.75.18-9.5,0-14.24-.11-2.84.94-3.58,3.65-3.51,6.13.17,12.27,0,18.41,0Z"/><path class="cls-2" d="M168.64,219.62c0,10.57,0,10.54-10.34,10.59-3.49,0-7,.21-10.48.33-.12-3.84-.32-7.69-.34-11.53,0-10.4,0-10.4,10.45-10.4C168.64,208.61,168.64,208.61,168.64,219.62Z"/></g></g></svg>